# xmcd
#
# Track frame offsets: 
#        150
#        20510
#        46312
#        69787
#        94104
#        117962
#        137240
#        154347
#        175970
#        196127
#        217827
#        232022
#        245472
#        265682
#        280217
#        302967
#
# Disc length: 4332 seconds
#
# Revision: 5
# Processed by: cddbd v1.5.2PL0 Copyright (c) Steve Scherf et al.
# Submitted via: ExactAudioCopy v0.99pb5
#
DISCID=df10ea10
DTITLE=Various Artist - Real Blues Rock  CD2
DYEAR=2008
DGENRE=Blues
TTITLE0=Big George Jackson Blues Band - Blue Sky
TTITLE1=Luther Guitar Johnson - My Love Will Never Die
TTITLE2=Corey Stevens - That's What The Blues Is All About
TTITLE3=Bernard Ellison - That's Why I'm Cryin'
TTITLE4=Tino Gonzales - Last Two Dollars
TTITLE5=Aynsley Lister - Disorderly Me
TTITLE6=David Raitt and Jimmy Thackery - Tell Me
TTITLE7=Ronnie Earl - Catfish Blues
TTITLE8=Duke Robillard - Gambler Blues
TTITLE9=Tab Benoit - Down In The Swamp
TTITLE10=Omar Kent Dykes and Jimmie Vaughan - Big Boss Man
TTITLE11=Blues Company - The Called Him Muddy Waters
TTITLE12=Koko Taylor - Piece Of Man
TTITLE13=Guitar Shorty - Story Of My Life
TTITLE14=Robin Trower - Brigde Of Sighs
TTITLE15=The Stimulators - Do It Again
EXTD=
EXTT0=
EXTT1=
EXTT2=
EXTT3=
EXTT4=
EXTT5=
EXTT6=
EXTT7=
EXTT8=
EXTT9=
EXTT10=
EXTT11=
EXTT12=
EXTT13=
EXTT14=
EXTT15=
PLAYORDER=
